<svg width="163" height="60" viewBox="0 0 163 60" fill="none" xmlns="http://www.w3.org/2000/svg">
<path d="M5.64 43.32C4.81333 43.32 4.17333 43.0933 3.72 42.64C3.29333 42.16 3.08 41.5067 3.08 40.68V17.4C3.08 16.5467 3.30667 15.9067 3.76 15.48C4.21333 15.0267 4.85333 14.8 5.68 14.8H15.32C18.4133 14.8 20.8 15.5467 22.48 17.04C24.16 18.5067 25 20.5733 25 23.24C25 24.9733 24.6133 26.4667 23.84 27.72C23.0933 28.9733 22 29.9333 20.56 30.6C19.12 31.2667 17.3733 31.6 15.32 31.6L15.68 31H17C18.0933 31 19.04 31.2667 19.84 31.8C20.6667 32.3333 21.3867 33.1733 22 34.32L25 39.88C25.32 40.44 25.4667 40.9867 25.44 41.52C25.4133 42.0533 25.2133 42.4933 24.84 42.84C24.4667 43.16 23.92 43.32 23.2 43.32C22.48 43.32 21.8933 43.1733 21.44 42.88C20.9867 42.56 20.5867 42.08 20.24 41.44L16.2 34C15.72 33.0933 15.1467 32.4933 14.48 32.2C13.84 31.88 13.0133 31.72 12 31.72H8.2V40.68C8.2 41.5067 7.98667 42.16 7.56 42.64C7.13333 43.0933 6.49333 43.32 5.64 43.32ZM8.2 27.92H14.44C16.28 27.92 17.6667 27.5467 18.6 26.8C19.56 26.0267 20.04 24.88 20.04 23.36C20.04 21.8667 19.56 20.7467 18.6 20C17.6667 19.2267 16.28 18.84 14.44 18.84H8.2V27.92ZM39.8219 47.92C39.2352 47.92 38.7552 47.72 38.3819 47.32C38.0085 46.9467 37.8219 46.48 37.8219 45.92V42.36L38.7419 43.24C36.9019 43.1867 35.2619 42.9467 33.8219 42.52C32.4085 42.0933 31.2085 41.6 30.2219 41.04C29.7419 40.7467 29.4085 40.3867 29.2219 39.96C29.0352 39.5067 28.9685 39.0533 29.0219 38.6C29.0752 38.1467 29.2352 37.76 29.5019 37.44C29.7952 37.0933 30.1552 36.88 30.5819 36.8C31.0085 36.6933 31.5019 36.8 32.0619 37.12C32.8085 37.5467 33.7819 37.96 34.9819 38.36C36.2085 38.7333 37.6752 38.92 39.3819 38.92C40.7152 38.92 41.7952 38.76 42.6219 38.44C43.4485 38.12 44.0485 37.68 44.4219 37.12C44.8219 36.56 45.0219 35.92 45.0219 35.2C45.0219 34.6133 44.8885 34.1067 44.6219 33.68C44.3552 33.2267 43.9152 32.84 43.3019 32.52C42.6885 32.1733 41.8619 31.8933 40.8219 31.68L36.5819 30.76C34.1552 30.2267 32.3419 29.3333 31.1419 28.08C29.9419 26.8267 29.3419 25.1867 29.3419 23.16C29.3419 21.5867 29.7285 20.1867 30.5019 18.96C31.2752 17.7067 32.3552 16.7067 33.7419 15.96C35.1285 15.2133 36.7552 14.7733 38.6219 14.64L37.8219 15.24V11.88C37.8219 11.32 38.0085 10.8533 38.3819 10.48C38.7552 10.08 39.2352 9.88 39.8219 9.88C40.3819 9.88 40.8485 10.08 41.2219 10.48C41.6219 10.8533 41.8219 11.32 41.8219 11.88V15.24L40.9819 14.6C42.1285 14.6267 43.3819 14.8533 44.7419 15.28C46.1285 15.7067 47.3152 16.3067 48.3019 17.08C48.7019 17.4 48.9685 17.7733 49.1019 18.2C49.2352 18.6 49.2485 19 49.1419 19.4C49.0352 19.7733 48.8352 20.0933 48.5419 20.36C48.2485 20.6267 47.8752 20.7867 47.4219 20.84C46.9952 20.8667 46.5019 20.72 45.9419 20.4C45.1685 19.9467 44.3019 19.5867 43.3419 19.32C42.3819 19.0267 41.2352 18.88 39.9019 18.88C38.1952 18.88 36.8485 19.2667 35.8619 20.04C34.9019 20.7867 34.4219 21.7733 34.4219 23C34.4219 23.9067 34.7152 24.64 35.3019 25.2C35.8885 25.7333 36.8885 26.16 38.3019 26.48L42.6619 27.44C45.2219 28 47.1019 28.8933 48.3019 30.12C49.5019 31.32 50.1019 32.9067 50.1019 34.88C50.1019 36.4267 49.7152 37.8 48.9419 39C48.1685 40.1733 47.1019 41.12 45.7419 41.84C44.4085 42.5333 42.8485 42.9733 41.0619 43.16L41.8219 42.32V45.92C41.8219 46.48 41.6352 46.9467 41.2619 47.32C40.8885 47.72 40.4085 47.92 39.8219 47.92ZM68.5056 43C67.8123 43 67.2656 42.8133 66.8656 42.44C66.4923 42.04 66.3056 41.5067 66.3056 40.84C66.3056 40.1467 66.4923 39.6267 66.8656 39.28C67.2656 38.9333 67.8123 38.76 68.5056 38.76H72.9856V19.12H75.4656L69.5856 22.68C69.079 22.9733 68.599 23.0933 68.1456 23.04C67.719 22.96 67.3456 22.7733 67.0256 22.48C66.7323 22.16 66.5323 21.7867 66.4256 21.36C66.319 20.9333 66.3456 20.5067 66.5056 20.08C66.6923 19.6267 67.039 19.2533 67.5456 18.96L73.0656 15.64C73.599 15.32 74.1323 15.0533 74.6656 14.84C75.199 14.6 75.6923 14.48 76.1456 14.48C76.7056 14.48 77.1723 14.64 77.5456 14.96C77.919 15.2533 78.1056 15.7467 78.1056 16.44V38.76H82.1856C82.879 38.76 83.4123 38.9333 83.7856 39.28C84.1856 39.6267 84.3856 40.1467 84.3856 40.84C84.3856 41.5333 84.1856 42.0667 83.7856 42.44C83.4123 42.8133 82.879 43 82.1856 43H68.5056ZM92.49 43C91.7967 43 91.25 42.8133 90.85 42.44C90.4767 42.04 90.29 41.5067 90.29 40.84C90.29 40.1467 90.4767 39.6267 90.85 39.28C91.25 38.9333 91.7967 38.76 92.49 38.76H96.97V19.12H99.45L93.57 22.68C93.0633 22.9733 92.5833 23.0933 92.13 23.04C91.7033 22.96 91.33 22.7733 91.01 22.48C90.7167 22.16 90.5167 21.7867 90.41 21.36C90.3033 20.9333 90.33 20.5067 90.49 20.08C90.6767 19.6267 91.0233 19.2533 91.53 18.96L97.05 15.64C97.5833 15.32 98.1167 15.0533 98.65 14.84C99.1833 14.6 99.6767 14.48 100.13 14.48C100.69 14.48 101.157 14.64 101.53 14.96C101.903 15.2533 102.09 15.7467 102.09 16.44V38.76H106.17C106.863 38.76 107.397 38.9333 107.77 39.28C108.17 39.6267 108.37 40.1467 108.37 40.84C108.37 41.5333 108.17 42.0667 107.77 42.44C107.397 42.8133 106.863 43 106.17 43H92.49ZM122.234 43.4C120.048 43.4 118.168 43.0933 116.594 42.48C115.048 41.84 113.848 40.92 112.994 39.72C112.168 38.52 111.754 37.08 111.754 35.4C111.754 34.0667 112.021 32.8933 112.554 31.88C113.114 30.84 113.874 30 114.834 29.36C115.794 28.72 116.888 28.32 118.114 28.16V29C116.408 28.6267 115.034 27.8133 113.994 26.56C112.981 25.28 112.474 23.76 112.474 22C112.474 20.4 112.874 19.04 113.674 17.92C114.474 16.7733 115.608 15.9067 117.074 15.32C118.541 14.7067 120.261 14.4 122.234 14.4C124.234 14.4 125.968 14.7067 127.434 15.32C128.901 15.9067 130.034 16.7733 130.834 17.92C131.634 19.04 132.034 20.4 132.034 22C132.034 23.1733 131.794 24.2533 131.314 25.24C130.861 26.2267 130.208 27.04 129.354 27.68C128.528 28.32 127.554 28.7467 126.434 28.96V28.16C128.301 28.4267 129.808 29.2133 130.954 30.52C132.128 31.8 132.714 33.4267 132.714 35.4C132.714 37.08 132.288 38.52 131.434 39.72C130.608 40.92 129.408 41.84 127.834 42.48C126.288 43.0933 124.421 43.4 122.234 43.4ZM122.234 39.4C124.128 39.4 125.554 39.04 126.514 38.32C127.474 37.5733 127.954 36.48 127.954 35.04C127.954 33.6 127.474 32.52 126.514 31.8C125.554 31.08 124.128 30.72 122.234 30.72C120.368 30.72 118.941 31.08 117.954 31.8C116.994 32.52 116.514 33.6 116.514 35.04C116.514 36.48 116.994 37.5733 117.954 38.32C118.941 39.04 120.368 39.4 122.234 39.4ZM122.234 26.72C123.301 26.72 124.208 26.56 124.954 26.24C125.701 25.8933 126.274 25.4 126.674 24.76C127.074 24.12 127.274 23.3733 127.274 22.52C127.274 21.24 126.821 20.24 125.914 19.52C125.034 18.7733 123.808 18.4 122.234 18.4C120.661 18.4 119.434 18.7733 118.554 19.52C117.674 20.24 117.234 21.24 117.234 22.52C117.234 23.8267 117.674 24.8533 118.554 25.6C119.434 26.3467 120.661 26.72 122.234 26.72Z" fill="#B244F9"/>
<path d="M141.256 27.712C141.117 27.8827 140.968 27.9787 140.808 28C140.659 28.032 140.525 28.0053 140.408 27.92C140.291 27.8347 140.227 27.712 140.216 27.552C140.205 27.4027 140.275 27.2373 140.424 27.056C140.637 26.7893 140.781 26.5227 140.856 26.256C140.931 25.9893 140.968 25.7493 140.968 25.536L141.048 26.08C140.675 26.08 140.371 25.9733 140.136 25.76C139.912 25.536 139.8 25.2427 139.8 24.88C139.8 24.5387 139.907 24.2613 140.12 24.048C140.333 23.824 140.621 23.712 140.984 23.712C141.357 23.712 141.651 23.84 141.864 24.096C142.077 24.3413 142.184 24.6987 142.184 25.168C142.184 25.424 142.157 25.6907 142.104 25.968C142.061 26.2347 141.971 26.512 141.832 26.8C141.704 27.0987 141.512 27.4027 141.256 27.712ZM145.721 26.128C145.475 26.128 145.273 26.0693 145.113 25.952C144.953 25.8347 144.857 25.68 144.825 25.488C144.793 25.2853 144.841 25.0613 144.969 24.816L149.801 15.728V16.432H144.617C144.329 16.432 144.105 16.3573 143.945 16.208C143.795 16.0587 143.721 15.8507 143.721 15.584C143.721 15.3067 143.795 15.0933 143.945 14.944C144.105 14.7947 144.329 14.72 144.617 14.72H150.809C151.097 14.72 151.331 14.7947 151.513 14.944C151.694 15.0933 151.785 15.3067 151.785 15.584C151.785 15.8187 151.753 16.0267 151.689 16.208C151.625 16.3787 151.539 16.5653 151.433 16.768L146.889 25.456C146.771 25.6907 146.617 25.8613 146.425 25.968C146.243 26.0747 146.009 26.128 145.721 26.128ZM157.459 26.16C156.893 26.16 156.317 26.0853 155.731 25.936C155.144 25.7867 154.605 25.5573 154.115 25.248C153.912 25.12 153.773 24.9707 153.699 24.8C153.635 24.6187 153.619 24.4427 153.651 24.272C153.693 24.0907 153.773 23.9413 153.891 23.824C154.019 23.696 154.168 23.6213 154.339 23.6C154.52 23.5787 154.717 23.6267 154.931 23.744C155.325 23.968 155.725 24.1387 156.131 24.256C156.536 24.3733 156.968 24.432 157.427 24.432C157.875 24.432 158.259 24.352 158.579 24.192C158.899 24.032 159.144 23.808 159.315 23.52C159.485 23.232 159.571 22.896 159.571 22.512C159.571 21.9147 159.389 21.4347 159.027 21.072C158.664 20.6987 158.168 20.512 157.539 20.512C157.197 20.512 156.867 20.5707 156.547 20.688C156.227 20.7947 155.912 20.9867 155.603 21.264C155.507 21.3493 155.384 21.4347 155.235 21.52C155.085 21.5947 154.925 21.632 154.755 21.632C154.488 21.632 154.285 21.5627 154.147 21.424C154.008 21.2853 153.939 21.0933 153.939 20.848V15.616C153.939 15.328 154.013 15.1093 154.163 14.96C154.323 14.8 154.547 14.72 154.835 14.72H160.099C160.387 14.72 160.605 14.7947 160.755 14.944C160.915 15.0827 160.995 15.2907 160.995 15.568C160.995 15.8347 160.915 16.0427 160.755 16.192C160.605 16.3413 160.387 16.416 160.099 16.416H155.939V20H155.411C155.688 19.6267 156.056 19.3387 156.515 19.136C156.973 18.9333 157.475 18.832 158.019 18.832C158.733 18.832 159.352 18.9867 159.875 19.296C160.408 19.5947 160.819 20.016 161.107 20.56C161.405 21.0933 161.555 21.7173 161.555 22.432C161.555 23.168 161.389 23.8187 161.059 24.384C160.728 24.9387 160.253 25.376 159.635 25.696C159.027 26.0053 158.301 26.16 157.459 26.16Z" fill="#B244F9"/>
</svg>
